<?xml version="1.0" encoding="UTF-8" standalone="no"?>
<!-- Created with Inkscape (http://www.inkscape.org/) -->

<svg
   version="1.1"
   id="svg18"
   width="879.51929"
   height="942.34259"
   viewBox="0 0 879.51929 942.34259"
   sodipodi:docname="Ideogramma-Robosintesi-Black.svg"
   inkscape:export-filename="Ideogramma-Robosintesi-Black.svg"
   inkscape:export-xdpi="100.07"
   inkscape:export-ydpi="100.07"
   inkscape:version="1.2.2 (b0a8486541, 2022-12-01)"
   xmlns:inkscape="http://www.inkscape.org/namespaces/inkscape"
   xmlns:sodipodi="http://sodipodi.sourceforge.net/DTD/sodipodi-0.dtd"
   xmlns="http://www.w3.org/2000/svg"
   xmlns:svg="http://www.w3.org/2000/svg">
  <defs
     id="defs22">
    <clipPath
       clipPathUnits="userSpaceOnUse"
       id="clipPath34">
      <path
         d="M 0,1080 H 1080 V 0 H 0 Z"
         id="path32" />
    </clipPath>
  </defs>
  <sodipodi:namedview
     id="namedview20"
     pagecolor="#505050"
     bordercolor="#eeeeee"
     borderopacity="1"
     inkscape:showpageshadow="0"
     inkscape:pageopacity="0"
     inkscape:pagecheckerboard="0"
     inkscape:deskcolor="#505050"
     showgrid="false"
     inkscape:zoom="0.52247334"
     inkscape:cx="3222.174"
     inkscape:cy="751.2345"
     inkscape:window-width="1245"
     inkscape:window-height="1345"
     inkscape:window-x="0"
     inkscape:window-y="0"
     inkscape:window-maximized="0"
     inkscape:current-layer="g26" />
  <g
     id="g26"
     inkscape:groupmode="layer"
     inkscape:label="Page 1"
     transform="matrix(1.3333333,0,0,-1.3333333,-280.24026,1191.1713)">
    <g
       id="g28">
      <g
         id="g30"
         clip-path="url(#clipPath34)">
        <g
           id="g36"
           transform="translate(516.4451,422.2076)">
          <path
             d="m 0,0 v -235.586 h -94.233 v 164.91 c 0,13.011 -10.548,23.559 -23.559,23.559 H -282.7 c -13.011,0 -23.558,10.547 -23.558,23.558 v 47.118 c 0,13.011 10.547,23.558 23.558,23.558 H -47.117 C -21.095,47.117 0,26.022 0,0"
             style="fill:#000000;fill-opacity:1;fill-rule:nonzero;stroke:none"
             id="path38" />
        </g>
        <g
           id="g40"
           transform="translate(563.5617,422.2076)">
          <path
             d="m 0,0 v -235.586 h 94.233 v 164.91 c 0,13.011 10.548,23.559 23.559,23.559 H 282.7 c 13.011,0 23.558,10.547 23.558,23.558 v 47.118 c 0,13.011 -10.547,23.558 -23.558,23.558 H 47.117 C 21.095,47.117 0,26.022 0,0"
             style="fill:#000000;fill-opacity:1;fill-rule:nonzero;stroke:none"
             id="path42" />
        </g>
        <g
           id="g44"
           transform="translate(869.8132,587.1165)">
          <path
             d="m 0,0 v -47.117 c 0,-13.011 -10.547,-23.559 -23.558,-23.559 h -612.517 c -13.011,0 -23.558,10.548 -23.558,23.559 V 0 c 0,13.011 10.547,23.559 23.558,23.559 h 153.722 c 4.197,0 6.3,5.075 3.331,8.043 L -588.608,141.19 c -9.198,9.198 -9.201,24.11 -0.006,33.311 l 33.177,33.201 c 9.199,9.206 24.12,9.209 33.322,0.006 l 137.138,-137.14 c 2.969,-2.968 8.044,-0.866 8.044,3.332 v 208.803 c 0,13.012 10.547,23.559 23.558,23.559 h 47.117 c 13.011,0 23.558,-10.547 23.558,-23.559 V 74.086 c 0,-4.197 5.075,-6.3 8.043,-3.332 l 137.097,137.059 c 9.201,9.198 24.115,9.197 33.314,-0.002 l 33.168,-33.169 c 9.2,-9.201 9.2,-24.117 0,-33.317 L -180.8,31.602 c -2.968,-2.968 -0.866,-8.043 3.331,-8.043 H -23.558 C -10.547,23.559 0,13.011 0,0"
             style="fill:#000000;fill-opacity:1;fill-rule:nonzero;stroke:none"
             id="path46" />
        </g>
      </g>
    </g>
  </g>
</svg>
